<svg data-name="Group 50651" xmlns="http://www.w3.org/2000/svg" width="47.841" height="39.082" viewBox="0 0 47.841 39.082">
    <path data-name="Subtraction 91" d="M18.365 36.559h-.007a18.126 18.126 0 0 1-6.809-1.321 17.9 17.9 0 0 1-5.992-3.961l-.248-.246a17.966 17.966 0 0 1 0-25.5l.248-.246A17.992 17.992 0 0 1 14.906.331a18.241 18.241 0 0 1 10.275.99 17.917 17.917 0 0 1 5.992 3.961l13.055 13-5.018 5a.928.928 0 0 0-.341-.064h-.067a7.156 7.156 0 0 0-1.4.229 7.254 7.254 0 0 0-1.121.4.935.935 0 0 0-.542 1 1.968 1.968 0 0 1-2.271 2.27.918.918 0 0 0-1 .533 7.489 7.489 0 0 0-.654 2.454 1.025 1.025 0 0 0 .029.322.929.929 0 0 0 .05.14l-.721.718a18 18 0 0 1-9.349 4.951 18.356 18.356 0 0 1-3.458.324zM5.629 10.735 7.973 14.3h17.094a1.36 1.36 0 0 1 .464.324 1.541 1.541 0 0 1 .315.487 1.957 1.957 0 0 1 .136.778 1.791 1.791 0 0 1-.15.737 1.081 1.081 0 0 1-.314.4.951.951 0 0 1-.452.2H9.892l2.345 3.57h6.371l3.733 6.4h6.312l-3.971-6.4h1.63a5.157 5.157 0 0 0 2.049-.76 4.584 4.584 0 0 0 2.032-4.143 4.989 4.989 0 0 0-2.049-4.27 5.36 5.36 0 0 0-2.032-.887H5.629z" style="fill:#19257c"/>
    <g data-name="Layer 2">
        <path data-name="Path 29479" d="M12.436 4.424a1.728 1.728 0 0 1-1.362-2.337.811.811 0 0 0-.242-.913A6.5 6.5 0 0 0 8.892.051a.816.816 0 0 0-.921.256 1.724 1.724 0 0 1-1.358.662A1.724 1.724 0 0 1 5.255.307a.816.816 0 0 0-.921-.256 6.533 6.533 0 0 0-1.808 1.014A.82.82 0 0 0 2.27 2 1.719 1.719 0 0 1 .838 4.367a.816.816 0 0 0-.714.657A6.234 6.234 0 0 0 0 6.258a6.313 6.313 0 0 0 .084 1.036.816.816 0 0 0 .716.684 1.719 1.719 0 0 1 1.4 2.429.8.8 0 0 0 .225.961 6.551 6.551 0 0 0 1.922 1.107.882.882 0 0 0 .278.048.811.811 0 0 0 .661-.344 1.706 1.706 0 0 1 1.414-.741 1.728 1.728 0 0 1 1.384.7.811.811 0 0 0 .952.269A6.613 6.613 0 0 0 10.8 11.35a.816.816 0 0 0 .238-.93 1.719 1.719 0 0 1 1.38-2.376.816.816 0 0 0 .692-.67 6.392 6.392 0 0 0 .115-1.115 6.33 6.33 0 0 0-.11-1.178.807.807 0 0 0-.679-.656zM8.817 6.258a2.2 2.2 0 1 1-2.2-2.2 2.2 2.2 0 0 1 2.2 2.2z" transform="rotate(14.98 -71.963 144.84)" style="fill:#19257c"/>
    </g>
</svg>
