<svg xmlns="http://www.w3.org/2000/svg" width="15.685" height="16.557" viewBox="0 0 15.685 16.557">
    <path d="M3.2 16.557a1.561 1.561 0 0 1-1.26-.654 2.439 2.439 0 0 1-.525-1.574l.01-10.054H.357a.344.344 0 0 1-.253-.1A.328.328 0 0 1 0 3.924v-.715a.354.354 0 0 1 .1-.26.35.35 0 0 1 .253-.1H3.8L4.579.994a1.526 1.526 0 0 1 .6-.7A1.578 1.578 0 0 1 6.06 0h3.567a1.572 1.572 0 0 1 .873.291 1.548 1.548 0 0 1 .6.7l.779 1.857h3.44a.349.349 0 0 1 .254.1.369.369 0 0 1 .1.26v.715a.347.347 0 0 1-.357.352h-1.061l-.009 10.012a2.516 2.516 0 0 1-.521 1.6 1.557 1.557 0 0 1-1.26.672zm-.357-2.27a1.19 1.19 0 0 0 .08.449.954.954 0 0 0 .16.3c.056.061.095.094.117.094h9.264c.023 0 .062-.033.117-.094a1.058 1.058 0 0 0 .165-.3 1.292 1.292 0 0 0 .075-.449l.009-10.012H2.854zM5.895 1.549l-.55 1.3h4.991l-.536-1.3a.283.283 0 0 0-.187-.121H6.082a.294.294 0 0 0-.187.121zm4.441 12a.345.345 0 0 1-.253-.1.359.359 0 0 1-.1-.258v-6.42a.343.343 0 0 1 .1-.254.326.326 0 0 1 .253-.1h.715a.347.347 0 0 1 .254.1.332.332 0 0 1 .1.254v6.416a.347.347 0 0 1-.357.357zm-2.849 0a.357.357 0 0 1-.259-.1.362.362 0 0 1-.1-.258v-6.42a.347.347 0 0 1 .1-.254.338.338 0 0 1 .259-.1H8.2a.364.364 0 0 1 .259.1.339.339 0 0 1 .1.254v6.416a.361.361 0 0 1-.1.258.369.369 0 0 1-.259.1zm-2.852 0a.359.359 0 0 1-.259-.1.354.354 0 0 1-.1-.258v-6.42a.346.346 0 0 1 .357-.357h.709a.351.351 0 0 1 .259.1.343.343 0 0 1 .1.254v6.416a.365.365 0 0 1-.1.258.356.356 0 0 1-.259.1z" style="fill:#151aae"/>
</svg>
