<svg xmlns="http://www.w3.org/2000/svg" width="54.482" height="54.482" viewBox="0 0 54.482 54.482">
    <g data-name="Group 91453">
        <g data-name="Group 91435">
            <g data-name="Group 91432">
                <g data-name="Group 91431">
                    <path data-name="Path 95640" d="M150.9 166.053a2.208 2.208 0 0 0-3.122-.082l-14.1 13.372-6.726-6.905a2.209 2.209 0 0 0-3.164 3.082l8.246 8.466a2.209 2.209 0 0 0 3.1.062l15.682-14.872a2.208 2.208 0 0 0 .084-3.123z" transform="translate(-110.053 -147.768)" style="fill:#21c44c"/>
                </g>
            </g>
            <g data-name="Group 91434">
                <g data-name="Group 91433">
                    <path data-name="Path 95641" d="M27.241 0a27.241 27.241 0 1 0 27.241 27.241A27.272 27.272 0 0 0 27.241 0zm0 50.065a22.824 22.824 0 1 1 22.824-22.824 22.849 22.849 0 0 1-22.824 22.824z" style="fill:#21c44c"/>
                </g>
            </g>
        </g>
    </g>
</svg>
