<svg xmlns="http://www.w3.org/2000/svg" width="18" height="22" viewBox="0 0 18 22">
    <g data-name="Group 12917">
        <path data-name="Union 5" d="M2.561 22A2.542 2.542 0 0 1 0 19.482V2.52A2.544 2.544 0 0 1 2.561 0h9.966a.694.694 0 0 1 .482.193l4.784 4.625A.671.671 0 0 1 18 5.3v14.182A2.542 2.542 0 0 1 15.439 22zM1.373 2.52v16.962a1.181 1.181 0 0 0 1.188 1.17h12.878a1.179 1.179 0 0 0 1.188-1.168V5.976h-3.2a1.581 1.581 0 0 1-1.59-1.566V1.351H2.561A1.18 1.18 0 0 0 1.373 2.52zm11.841 1.889a.217.217 0 0 0 .217.216h2.2l-2.417-2.339zM4.09 16.419a.675.675 0 1 1 0-1.351h8.838a.675.675 0 1 1 0 1.351zm0-2.7a.675.675 0 1 1 0-1.351h7.888a.675.675 0 1 1 0 1.351zm0-2.7a.675.675 0 1 1 0-1.351h9.674a.675.675 0 1 1 0 1.351z" style="fill:#fff"/>
    </g>
</svg>
