<svg xmlns="http://www.w3.org/2000/svg" width="17.625" height="22.13" viewBox="0 0 17.625 22.13">
    <path data-name="Path 95645" d="M19.314 9.327H9.94V7.335a3.757 3.757 0 0 1 7.216-1.462.79.79 0 1 0 1.454-.616A5.337 5.337 0 0 0 8.359 7.335v1.992h-.348a3.161 3.161 0 0 0-3.161 3.161v8.481a3.161 3.161 0 0 0 3.161 3.161h11.3a3.161 3.161 0 0 0 3.161-3.161v-8.481a3.166 3.166 0 0 0-3.158-3.161zm1.581 11.642a1.585 1.585 0 0 1-1.581 1.581H8.011a1.585 1.585 0 0 1-1.581-1.581v-8.481a1.585 1.585 0 0 1 1.581-1.581h11.3a1.585 1.585 0 0 1 1.581 1.581zm-5.81-4.469a1.432 1.432 0 0 1-.632 1.186v1.936a.79.79 0 1 1-1.581 0v-1.933a1.424 1.424 0 1 1 2.213-1.189z" transform="translate(-4.85 -2)" style="fill:#314bc9"/>
</svg>
