<svg xmlns="http://www.w3.org/2000/svg" width="17.445" height="20.575" viewBox="0 0 17.445 20.575">
    <g data-name="badge (1)">
        <g data-name="Group 50624">
            <g data-name="Group 50623">
                <path data-name="Path 30569" d="M55.959 8.608a8.027 8.027 0 0 1-.059-4.915l.471-1.541L54.216 0l-.4.232a5.441 5.441 0 0 1-5.846 0l-.3-.174-.3.174a5.441 5.441 0 0 1-5.846 0L41.119 0l-2.152 2.152.471 1.541a8.027 8.027 0 0 1-.062 4.915 8.3 8.3 0 0 0 4.411 10.183l3.88 1.785 3.88-1.785a8.3 8.3 0 0 0 4.412-10.183zm-4.916 9.086-3.376 1.553-3.376-1.553a7.1 7.1 0 0 1-3.771-8.7 9.228 9.228 0 0 0 .072-5.65l-.259-.847.993-.993a6.552 6.552 0 0 0 6.341-.056 6.552 6.552 0 0 0 6.341.056l.992.989-.259.847a9.228 9.228 0 0 0 .072 5.65 7.1 7.1 0 0 1-3.77 8.704z" transform="translate(-38.944)" style="fill:#fff"/>
            </g>
        </g>
        <g data-name="Group 50626">
            <g data-name="Group 50625">
                <path data-name="Path 30570" d="m142.338 115.406-3.294-.03-1.673-2.838-1.673 2.838-3.294.03 1.621 2.868-1.621 2.868 3.294.03 1.673 2.838 1.673-2.838 3.294-.03-1.621-2.868zm-3.988 4.564-.979 1.661-.979-1.661-1.929-.017.949-1.679-.949-1.679 1.929-.017.979-1.661.979 1.661 1.929.017-.949 1.679.949 1.679z" transform="translate(-128.648 -108.016)" style="fill:#fff"/>
            </g>
        </g>
    </g>
</svg>
