<svg xmlns="http://www.w3.org/2000/svg" width="21.341" height="18.59" viewBox="0 0 21.341 18.59">
    <g data-name="Group 12926">
        <g data-name="Group 12919">
            <path data-name="Path 29467" d="M172.626 40.253A3.626 3.626 0 1 0 169 36.626a3.63 3.63 0 0 0 3.626 3.627zm0-6a2.376 2.376 0 1 1-2.376 2.376 2.379 2.379 0 0 1 2.376-2.379z" transform="translate(-161.956 -33)" style="fill:#fff"/>
            <path data-name="Path 29468" d="M379.292 101.585A2.292 2.292 0 1 0 377 99.292a2.3 2.3 0 0 0 2.292 2.293zm0-3.334a1.042 1.042 0 1 1-1.042 1.042 1.043 1.043 0 0 1 1.042-1.043z" transform="translate(-361.286 -94.332)" style="fill:#fff"/>
            <path data-name="Path 29469" d="M18.511 241h-.967a2.834 2.834 0 0 0-2.571 1.64 5.032 5.032 0 0 0-3.72-1.64h-1.165a5.032 5.032 0 0 0-3.719 1.64A2.834 2.834 0 0 0 3.8 241h-.97A2.825 2.825 0 0 0 0 243.813v4.552a1.225 1.225 0 0 0 1.226 1.221h3.823A1.461 1.461 0 0 0 6.5 250.92h8.334a1.462 1.462 0 0 0 1.454-1.334h3.78a1.269 1.269 0 0 0 1.27-1.265v-4.509A2.825 2.825 0 0 0 18.511 241zM1.25 243.813a1.573 1.573 0 0 1 1.58-1.563h.97a1.573 1.573 0 0 1 1.58 1.563v.428c-.42 1.095-.333 1.751-.333 4.095H1.25zm13.8 5.647a.21.21 0 0 1-.209.209H6.5a.21.21 0 0 1-.209-.209v-3.416a3.8 3.8 0 0 1 3.794-3.794h1.165a3.8 3.8 0 0 1 3.794 3.794zm5.043-1.139c0 .022.233.014-3.793.014 0-2.361.086-3-.333-4.095v-.428a1.573 1.573 0 0 1 1.58-1.563h.967a1.573 1.573 0 0 1 1.58 1.563z" transform="translate(0 -232.33)" style="fill:#fff"/>
            <path data-name="Path 29470" d="M27.292 101.585A2.292 2.292 0 1 0 25 99.292a2.3 2.3 0 0 0 2.292 2.293zm0-3.334a1.042 1.042 0 1 1-1.042 1.042 1.043 1.043 0 0 1 1.042-1.043z" transform="translate(-23.958 -94.332)" style="fill:#fff"/>
        </g>
    </g>
</svg>
