<svg xmlns="http://www.w3.org/2000/svg" width="20.256" height="20.256" viewBox="0 0 20.256 20.256">
    <g data-name="Group 12915">
        <path data-name="8660560541614873000" d="M9.7 13.554a.963.963 0 0 1 .963.963v5.777a.963.963 0 0 1-.963.963H2.963A.963.963 0 0 1 2 20.293v-5.777a.963.963 0 0 1 .963-.963zM20.293 8.74a.963.963 0 0 1 .963.963v10.59a.963.963 0 0 1-.963.963h-6.74a.963.963 0 0 1-.963-.963V9.7a.963.963 0 0 1 .963-.963zM9.7 2a.963.963 0 0 1 .963.963v7.7a.963.963 0 0 1-.963.963H2.963A.963.963 0 0 1 2 10.665v-7.7A.963.963 0 0 1 2.963 2zm10.593 0a.963.963 0 0 1 .963.963v2.888a.963.963 0 0 1-.963.963h-6.74a.963.963 0 0 1-.963-.963V2.963A.963.963 0 0 1 13.554 2z" transform="translate(-1.5 -1.5)" style="fill:none;stroke:#fff;fill-rule:evenodd"/>
    </g>
</svg>
