<svg xmlns="http://www.w3.org/2000/svg" width="18.273" height="17.061" viewBox="0 0 18.273 17.061">
    <g data-name="Group 12920">
        <path data-name="Path 29471" d="M184.786 97.665a.535.535 0 1 0 .369-.617.535.535 0 0 0-.369.617z" transform="translate(-178.181 -94.168)" style="fill:#314bc9"/>
        <path data-name="Path 29472" d="M18.138 27.944c-2.913-8.479-2.713-7.9-2.725-7.927a2.735 2.735 0 0 0-1.615-1.5c-.1-.036-5.967-1.407-6.136-1.466a1.8 1.8 0 0 0-1.749.387L.889 22.065A2.763 2.763 0 0 0 0 24.094v8.188a1.747 1.747 0 0 0 1.741 1.75H12.49a1.747 1.747 0 0 0 1.741-1.75v-.792l3-1.282a1.739 1.739 0 0 0 .907-2.264zm-5.648 5.017H1.741a.675.675 0 0 1-.67-.679v-8.188a1.69 1.69 0 0 1 .543-1.241c4.3-3.961 1.644-1.49 5.042-4.624a.679.679 0 0 1 .665-.156c.217.065-.166-.247 5.3 4.78a1.69 1.69 0 0 1 .543 1.241v8.188a.675.675 0 0 1-.67.679zm4.31-3.737-2.573 1.1v-6.23a2.763 2.763 0 0 0-.889-2.029L9.6 18.621l3.872.919a1.662 1.662 0 0 1 .95.884c2.907 8.463 2.711 7.9 2.724 7.924a.667.667 0 0 1-.343.876z" style="fill:#314bc9" transform="translate(0 -16.97)"/>
        <path data-name="Path 29473" d="M151.466 201.167a.535.535 0 0 0-.7.286l-2.606 6.211a.535.535 0 1 0 .987.414l2.606-6.211a.535.535 0 0 0-.287-.7z" transform="translate(-142.83 -194.552)" style="fill:#314bc9"/>
        <path data-name="Path 29474" d="M80.5 194.891a1.7 1.7 0 1 0-1.687 1.874 1.79 1.79 0 0 0 1.687-1.874zm-1.687.8a.831.831 0 1 1 .616-.8.739.739 0 0 1-.614.803z" transform="translate(-74.375 -186.734)" style="fill:#314bc9"/>
        <path data-name="Path 29475" d="M230.172 312.011a1.884 1.884 0 1 0 1.687 1.874 1.79 1.79 0 0 0-1.687-1.874zm0 2.677a.831.831 0 1 1 .616-.8.739.739 0 0 1-.616.8z" transform="translate(-220.331 -301.481)" style="fill:#314bc9"/>
    </g>
</svg>
