<svg xmlns="http://www.w3.org/2000/svg" width="21.965" height="21.855" viewBox="0 0 21.965 21.855">
    <path data-name="Path 30690" d="M45.132 50.11a2.2 2.2 0 0 0-2.282 2.1v.129a.242.242 0 0 0 .242.229h4.073a.242.242 0 0 0 .242-.229v-.129a2.2 2.2 0 0 0-2.275-2.1z" transform="translate(-27.583 -32.62)" style="fill:#fefeff"/>
    <path data-name="Path 30691" d="M47.614 44.255a1.143 1.143 0 1 0-1.144-1.144 1.144 1.144 0 0 0 1.144 1.144z" transform="translate(-30.385 -27.491)" style="fill:#fefeff"/>
    <path data-name="Path 30692" d="M8.905 50.11a2.2 2.2 0 0 0-2.285 2.1c0 .044 0 .082.006.132a.246.246 0 0 0 .242.226h4.074a.242.242 0 0 0 .242-.229v-.129a2.2 2.2 0 0 0-2.282-2.1z" transform="translate(-4.489 -32.62)" style="fill:#fefeff"/>
    <path data-name="Path 30693" d="M11.394 44.255a1.143 1.143 0 1 0-1.144-1.144 1.144 1.144 0 0 0 1.144 1.144z" transform="translate(-6.659 -27.491)" style="fill:#fefeff"/>
    <path data-name="Path 30694" d="M29.3 16.452v-.129a2.29 2.29 0 0 0-4.564 0v.129a.241.241 0 0 0 .242.226h4.074a.246.246 0 0 0 .248-.226z" transform="translate(-16.04 -9.31)" style="fill:#fefeff"/>
    <path data-name="Path 30695" d="M29.5 8.351A1.146 1.146 0 1 0 28.36 7.2a1.144 1.144 0 0 0 1.14 1.151z" transform="translate(-18.522 -4.155)" style="fill:#fefeff"/>
    <path data-name="Path 30696" d="M17.007 12.263a4.835 4.835 0 0 0-1.769.335l-1.882-3.726a4.8 4.8 0 1 0-5.068 0L6.407 12.6a4.8 4.8 0 1 0 3.009 4.89h2.81a4.8 4.8 0 1 0 4.781-5.225zM6.882 4.8a3.941 3.941 0 1 1 3.941 3.941A3.947 3.947 0 0 1 6.882 4.8zm1.7 12.263a3.941 3.941 0 1 1-3.944-3.943 3.949 3.949 0 0 1 3.941 3.941zm3.651-.43H9.412a4.8 4.8 0 0 0-2.244-3.64l1.879-3.728a4.766 4.766 0 0 0 1.769.335 4.853 4.853 0 0 0 1.772-.335l1.878 3.726a4.794 4.794 0 0 0-2.237 3.64zM17.007 21a3.947 3.947 0 0 1-3.941-3.941v-.007A3.941 3.941 0 1 1 17.007 21z" style="fill:#fefeff" transform="translate(.16)"/>
</svg>
