<svg xmlns="http://www.w3.org/2000/svg" width="20.488" height="17.792" viewBox="0 0 20.488 17.792">
    <path data-name="Union 30" d="m18.627 17.792-1.046-2.672h-4.428l-1.044 2.672h-1.867L14.433 7.12h1.861l4.194 10.672zm-4.776-4.444h3.025l-1.512-3.861zm-12.381.517 4.74-4.471A15.541 15.541 0 0 1 3.433 5.34H5.3a14.317 14.317 0 0 0 2.147 2.977A13.854 13.854 0 0 0 10.4 3.552H0V1.784h6.516V0h1.861v1.784H14.9v1.78h-2.725a15.5 15.5 0 0 1-3.458 5.807l-.028.029 2.361 2.232-.7 1.807-2.9-2.765-4.661 4.446z" style="fill:#314bc9"/>
</svg>
