<svg xmlns="http://www.w3.org/2000/svg" width="263" height="948.326" viewBox="0 0 263 948.326">
    <defs>
        <filter id="rbw2ze8eoa" x="0" y="0" width="263" height="948.326" filterUnits="userSpaceOnUse">
            <feOffset/>
            <feGaussianBlur stdDeviation=".5" result="blur"/>
            <feFlood flood-opacity=".09"/>
            <feComposite operator="in" in2="blur"/>
            <feComposite in="SourceGraphic"/>
        </filter>
    </defs>
    <g style="filter:url(#rbw2ze8eoa)">
        <path data-name="Path 29476" d="M0 0h260v945.326H0z" transform="translate(1.5 1.5)" style="fill:#fff"/>
    </g>
    <g data-name="Group 12928">
        <g data-name="Group 12924">
            <text data-name="Log out" transform="translate(65.5 891.209)" style="font-family:Montserrat-Medium,Montserrat;font-weight:500;font-size:16px;fill:#2e2e33"><tspan x="0" y="0">Log out</tspan></text>
            <path data-name="Path 29477" d="M14.745 2h5.49a.915.915 0 1 1 0 1.83h-5.49a.915.915 0 0 0-.915.915v12.809a.915.915 0 0 0 .915.915h5.49a.915.915 0 1 1 0 1.83h-5.49A2.745 2.745 0 0 1 12 17.554V4.745A2.745 2.745 0 0 1 14.745 2z" transform="translate(18.5 874.561)" style="fill:#314bc9"/>
            <path data-name="Path 29478" d="M11.418 14.588a.915.915 0 1 0 1.294 1.294l3.66-3.66a.915.915 0 0 0 0-1.294l-3.66-3.66a.915.915 0 1 0-1.294 1.294l2.1 2.1H2.915a.915.915 0 1 0 0 1.83h10.6z" transform="translate(32.16 874.136)" style="fill:#314bc9"/>
        </g>
    </g>
    <g data-name="Group 12927">
        <g data-name="Group 12923" transform="translate(8041.5 24222.297)">
            <rect data-name="Rectangle 18289" width="228" height="50" rx="5" transform="translate(-8024.657 -23687)" style="fill:#314bc9"/>
            <text data-name="BTT Mgmt" transform="translate(-7976 -23657.287)" style="font-family:Montserrat-Medium,Montserrat;font-weight:500;font-size:16px;fill:#fff"><tspan x="0" y="0">BTT Mgmt</tspan></text>
            <g data-name="badge (1)">
                <g data-name="Group 50624">
                    <g data-name="Group 50623">
                        <path data-name="Path 30569" d="M55.959 8.608a8.027 8.027 0 0 1-.059-4.915l.471-1.541L54.216 0l-.4.232a5.441 5.441 0 0 1-5.846 0l-.3-.174-.3.174a5.441 5.441 0 0 1-5.846 0L41.119 0l-2.152 2.152.471 1.541a8.027 8.027 0 0 1-.062 4.915 8.3 8.3 0 0 0 4.411 10.183l3.88 1.785 3.88-1.785a8.3 8.3 0 0 0 4.412-10.183zm-4.916 9.086-3.376 1.553-3.376-1.553a7.1 7.1 0 0 1-3.771-8.7 9.228 9.228 0 0 0 .072-5.65l-.259-.847.993-.993a6.552 6.552 0 0 0 6.341-.056 6.552 6.552 0 0 0 6.341.056l.992.989-.259.847a9.228 9.228 0 0 0 .072 5.65 7.1 7.1 0 0 1-3.77 8.704z" transform="translate(-8046.944 -23672.287)" style="fill:#fff"/>
                    </g>
                </g>
                <g data-name="Group 50626">
                    <g data-name="Group 50625">
                        <path data-name="Path 30570" d="m142.338 115.406-3.294-.03-1.673-2.838-1.673 2.838-3.294.03 1.621 2.868-1.621 2.868 3.294.03 1.673 2.838 1.673-2.838 3.294-.03-1.621-2.868zm-3.988 4.564-.979 1.661-.979-1.661-1.929-.017.949-1.679-.949-1.679 1.929-.017.979-1.661.979 1.661 1.929.017-.949 1.679.949 1.679z" transform="translate(-8136.648 -23780.303)" style="fill:#fff"/>
                    </g>
                </g>
            </g>
        </g>
        <g data-name="Group 12921">
            <text data-name="Staff Mgmt" transform="translate(65.5 501.822)" style="font-family:Montserrat-Medium,Montserrat;font-weight:500;font-size:16px;fill:#2e2e33"><tspan x="0" y="0">Staff Mgmt</tspan></text>
            <path d="M12.7 2a4.7 4.7 0 1 0 4.7 4.7A4.716 4.716 0 0 0 12.7 2zm0 1.568A3.136 3.136 0 1 1 9.568 6.7 3.124 3.124 0 0 1 12.7 3.568z" transform="translate(27.204 483.345)" style="fill:#314bc9"/>
            <path d="M9.056 16A7.057 7.057 0 0 0 2 23.056v1.568a.784.784 0 0 0 .784.784h8.5a.784.784 0 1 0 0-1.568H3.568v-.784a5.459 5.459 0 0 1 5.488-5.488H12.2a.784.784 0 1 0 0-1.568z" transform="translate(28.5 480.32)" style="fill:#314bc9"/>
            <path d="M21.477 16a.785.785 0 0 0-.776.795v.853a3.9 3.9 0 0 0-1.375.577l-.6-.6a.759.759 0 0 0-.593-.251.792.792 0 0 0-.516 1.36l.6.6a3.9 3.9 0 0 0-.574 1.375H16.8a.784.784 0 1 0 0 1.568h.854a3.9 3.9 0 0 0 .573 1.363l-.609.609a.784.784 0 1 0 1.109 1.109l.608-.608a3.9 3.9 0 0 0 1.372.576v.853a.784.784 0 1 0 1.568 0v-.851a3.9 3.9 0 0 0 1.37-.574l.612.612a.784.784 0 1 0 1.108-1.108l-.609-.609a3.9 3.9 0 0 0 .576-1.37h.854a.784.784 0 1 0 0-1.568h-.851a3.9 3.9 0 0 0-.577-1.383l.6-.6a.783.783 0 1 0-1.105-1.109l-.606.606a3.9 3.9 0 0 0-1.373-.576v-.851A.782.782 0 0 0 21.48 16zm.011 3.136a2.352 2.352 0 1 1-2.352 2.352 2.34 2.34 0 0 1 2.352-2.352z" transform="translate(25.475 480.32)" style="fill:#314bc9"/>
        </g>
        <g data-name="Group 12920">
            <text data-name="Discounts &amp; promo" transform="translate(65.5 453.346)" style="font-family:Montserrat-Medium,Montserrat;font-weight:500;font-size:16px;fill:#2e2e33"><tspan x="0" y="0">Discounts &amp; promo</tspan></text>
            <path data-name="Path 29471" d="M184.786 97.665a.535.535 0 1 0 .369-.617.535.535 0 0 0-.369.617z" transform="translate(-147.681 345.148)" style="fill:#314bc9"/>
            <path data-name="Path 29472" d="M18.138 27.944c-2.913-8.479-2.713-7.9-2.725-7.927a2.735 2.735 0 0 0-1.615-1.5c-.1-.036-5.967-1.407-6.136-1.466a1.8 1.8 0 0 0-1.749.387L.889 22.065A2.763 2.763 0 0 0 0 24.094v8.188a1.747 1.747 0 0 0 1.741 1.75H12.49a1.747 1.747 0 0 0 1.741-1.75v-.792l3-1.282a1.739 1.739 0 0 0 .907-2.264zm-5.648 5.017H1.741a.675.675 0 0 1-.67-.679v-8.188a1.69 1.69 0 0 1 .543-1.241c4.3-3.961 1.644-1.49 5.042-4.624a.679.679 0 0 1 .665-.156c.217.065-.166-.247 5.3 4.78a1.69 1.69 0 0 1 .543 1.241v8.188a.675.675 0 0 1-.67.679zm4.31-3.737-2.573 1.1v-6.23a2.763 2.763 0 0 0-.889-2.029L9.6 18.621l3.872.919a1.662 1.662 0 0 1 .95.884c2.907 8.463 2.711 7.9 2.724 7.924a.667.667 0 0 1-.343.876z" style="fill:#314bc9" transform="translate(30.5 422.346)"/>
            <path data-name="Path 29473" d="M151.466 201.167a.535.535 0 0 0-.7.286l-2.606 6.211a.535.535 0 1 0 .987.414l2.606-6.211a.535.535 0 0 0-.287-.7z" transform="translate(-112.33 244.764)" style="fill:#314bc9"/>
            <path data-name="Path 29474" d="M80.5 194.891a1.7 1.7 0 1 0-1.687 1.874 1.79 1.79 0 0 0 1.687-1.874zm-1.687.8a.831.831 0 1 1 .616-.8.739.739 0 0 1-.614.803z" transform="translate(-43.875 252.582)" style="fill:#314bc9"/>
            <path data-name="Path 29475" d="M230.172 312.011a1.884 1.884 0 1 0 1.687 1.874 1.79 1.79 0 0 0-1.687-1.874zm0 2.677a.831.831 0 1 1 .616-.8.739.739 0 0 1-.616.8z" transform="translate(-189.831 137.835)" style="fill:#314bc9"/>
        </g>
        <g data-name="Group 12926">
            <g data-name="Group 12919">
                <text transform="translate(65.5 400.346)" style="font-family:Montserrat-Medium,Montserrat;font-weight:500;font-size:16px;fill:#2e2e33"><tspan x="0" y="0">Clients</tspan></text>
                <path data-name="Path 29467" d="M172.626 40.253A3.626 3.626 0 1 0 169 36.626a3.63 3.63 0 0 0 3.626 3.627zm0-6a2.376 2.376 0 1 1-2.376 2.376 2.379 2.379 0 0 1 2.376-2.379z" transform="translate(-131.456 352.346)" style="fill:#314bc9"/>
                <path data-name="Path 29468" d="M379.292 101.585A2.292 2.292 0 1 0 377 99.292a2.3 2.3 0 0 0 2.292 2.293zm0-3.334a1.042 1.042 0 1 1-1.042 1.042 1.043 1.043 0 0 1 1.042-1.043z" transform="translate(-330.786 291.014)" style="fill:#314bc9"/>
                <path data-name="Path 29469" d="M18.511 241h-.967a2.834 2.834 0 0 0-2.571 1.64 5.032 5.032 0 0 0-3.72-1.64h-1.165a5.032 5.032 0 0 0-3.719 1.64A2.834 2.834 0 0 0 3.8 241h-.97A2.825 2.825 0 0 0 0 243.813v4.552a1.225 1.225 0 0 0 1.226 1.221h3.823A1.461 1.461 0 0 0 6.5 250.92h8.334a1.462 1.462 0 0 0 1.454-1.334h3.78a1.269 1.269 0 0 0 1.27-1.265v-4.509A2.825 2.825 0 0 0 18.511 241zM1.25 243.813a1.573 1.573 0 0 1 1.58-1.563h.97a1.573 1.573 0 0 1 1.58 1.563v.428c-.42 1.095-.333 1.751-.333 4.095H1.25zm13.8 5.647a.21.21 0 0 1-.209.209H6.5a.21.21 0 0 1-.209-.209v-3.416a3.8 3.8 0 0 1 3.794-3.794h1.165a3.8 3.8 0 0 1 3.794 3.794zm5.043-1.139c0 .022.233.014-3.793.014 0-2.361.086-3-.333-4.095v-.428a1.573 1.573 0 0 1 1.58-1.563h.967a1.573 1.573 0 0 1 1.58 1.563z" transform="translate(30.5 153.016)" style="fill:#314bc9"/>
                <path data-name="Path 29470" d="M27.292 101.585A2.292 2.292 0 1 0 25 99.292a2.3 2.3 0 0 0 2.292 2.293zm0-3.334a1.042 1.042 0 1 1-1.042 1.042 1.043 1.043 0 0 1 1.042-1.043z" transform="translate(6.542 291.014)" style="fill:#314bc9"/>
            </g>
            <g data-name="Arrow - Down 2">
                <path data-name="Stroke 1" d="M8.135 0 4.068 4.068 0 0" style="stroke:#2e2e33;stroke-linecap:round;stroke-linejoin:round;stroke-miterlimit:10;stroke-width:1.5px;fill:none" transform="rotate(-90 318.016 80.898)"/>
            </g>
        </g>
        <g data-name="Group 12918">
            <text transform="translate(65.5 344.492)" style="font-family:Montserrat-Medium,Montserrat;font-weight:500;font-size:16px;fill:#2e2e33"><tspan x="0" y="0">Platforms</tspan></text>
            <path data-name="Path 29123" d="M127.7 86.355a.724.724 0 0 0 .8-1.206l-6.069-4.029a.724.724 0 0 0-.8 0l-6.069 4.029a.724.724 0 0 0 .8 1.206l5.668-3.763z" transform="translate(-79.18 249.547)" style="fill:#314bc9"/>
            <path data-name="Path 29124" d="M182.815 165.4a.724.724 0 1 0 .8-1.206l-3.125-2.075a.724.724 0 0 0-.8 0l-3.125 2.075a.724.724 0 0 0 .8 1.206l2.725-1.809z" transform="translate(-137.238 172.456)" style="fill:#314bc9"/>
            <path data-name="Path 29125" d="m24.384 15.66-2.035-1.351 2.035-1.351a.724.724 0 0 0 0-1.206L22.348 10.4l2.035-1.351a.724.724 0 0 0 0-1.206L12.754.121a.724.724 0 0 0-.8 0L.323 7.842a.724.724 0 0 0 0 1.206L2.358 10.4.323 11.751a.724.724 0 0 0 0 1.206l2.035 1.351L.323 15.66a.724.724 0 0 0 0 1.206l11.63 7.721a.724.724 0 0 0 .8 0l11.63-7.721a.724.724 0 0 0 .001-1.206zM12.353 1.593l10.322 6.853L12.353 15.3 2.032 8.446zm-8.686 9.676 8.286 5.5a.724.724 0 0 0 .8 0l8.286-5.5 1.635 1.086-10.321 6.852-10.321-6.853zm8.686 11.847L2.032 16.263l1.635-1.086 8.286 5.5a.724.724 0 0 0 .8 0l8.286-5.5 1.635 1.086z" transform="translate(30.5 326.637)" style="fill:#314bc9"/>
        </g>
        <g data-name="Group 12917">
            <text data-name="Active Requests" transform="translate(65.5 288.637)" style="font-family:Montserrat-Medium,Montserrat;font-weight:500;font-size:16px;fill:#2e2e33"><tspan x="0" y="0">Active Requests</tspan></text>
            <path data-name="Union 5" d="M2.561 22A2.542 2.542 0 0 1 0 19.482V2.52A2.544 2.544 0 0 1 2.561 0h9.966a.694.694 0 0 1 .482.193l4.784 4.625A.671.671 0 0 1 18 5.3v14.182A2.542 2.542 0 0 1 15.439 22zM1.373 2.52v16.962a1.181 1.181 0 0 0 1.188 1.17h12.878a1.179 1.179 0 0 0 1.188-1.168V5.976h-3.2a1.581 1.581 0 0 1-1.59-1.566V1.351H2.561A1.18 1.18 0 0 0 1.373 2.52zm11.841 1.889a.217.217 0 0 0 .217.216h2.2l-2.417-2.339zM4.09 16.419a.675.675 0 1 1 0-1.351h8.838a.675.675 0 1 1 0 1.351zm0-2.7a.675.675 0 1 1 0-1.351h7.888a.675.675 0 1 1 0 1.351zm0-2.7a.675.675 0 1 1 0-1.351h9.674a.675.675 0 1 1 0 1.351z" transform="translate(30.5 270.637)" style="fill:#314bc9"/>
        </g>
        <g data-name="Group 12916">
            <text transform="translate(67.5 232.637)" style="font-family:Montserrat-Medium,Montserrat;font-weight:500;font-size:16px;fill:#2e2e33"><tspan x="0" y="0">MLS</tspan></text>
            <g data-name="MLS">
                <path data-name="Union 4" d="M0 22v-1.289h1.189V7.147H6.23V5.1l1.834-.917V2.105h2.291V0h1.289v2.105h2.292v2.08l1.341.671h3.243v3.838h2.292v12.017H22V22zm15.77-1.289h3.753V9.983H15.77zM9.354 4.982 7.52 5.9v14.811h6.96V5.9l-1.833-.917V3.395H9.354zM2.479 20.711H6.23V8.436H2.479zM15.77 8.694h1.46v-2.55h-1.46zm1.246 8.587v-1.834H18.3v1.833zm-5.285 0v-1.834h1.289v1.833zm-2.75 0v-1.834h1.289v1.833zM3.7 15.87v-1.834h1.284v1.834zm13.32-2.256v-1.833h1.28v1.833zm-5.285 0v-1.833h1.285v1.833zm-2.75 0v-1.833h1.285v1.833zM3.7 12.2v-1.83h1.284v1.83zm8.03-2.253V8.114h1.29v1.833zm-2.75 0V8.114h1.29v1.833z" transform="translate(30.5 212.636)" style="fill:#314bc9"/>
            </g>
        </g>
        <g data-name="Group 12915">
            <text transform="translate(67.5 174.637)" style="font-family:Montserrat-Medium,Montserrat;font-weight:500;font-size:16px;fill:#2e2e33"><tspan x="0" y="0">Dashboard</tspan></text>
            <path data-name="8660560541614873000" d="M9.7 13.554a.963.963 0 0 1 .963.963v5.777a.963.963 0 0 1-.963.963H2.963A.963.963 0 0 1 2 20.293v-5.777a.963.963 0 0 1 .963-.963zM20.293 8.74a.963.963 0 0 1 .963.963v10.59a.963.963 0 0 1-.963.963h-6.74a.963.963 0 0 1-.963-.963V9.7a.963.963 0 0 1 .963-.963zM9.7 2a.963.963 0 0 1 .963.963v7.7a.963.963 0 0 1-.963.963H2.963A.963.963 0 0 1 2 10.665v-7.7A.963.963 0 0 1 2.963 2zm10.593 0a.963.963 0 0 1 .963.963v2.888a.963.963 0 0 1-.963.963h-6.74a.963.963 0 0 1-.963-.963V2.963A.963.963 0 0 1 13.554 2z" transform="translate(28.5 157.381)" style="stroke:#314bc9;fill-rule:evenodd;fill:none"/>
        </g>
    </g>
    <g data-name="Group 12925">
        <g data-name="Ellipse 1353" transform="translate(223.5 53.5)" style="stroke:#19257c;stroke-width:2px;fill:#fff">
            <circle cx="10.5" cy="10.5" r="10.5" style="stroke:none"/>
            <circle cx="10.5" cy="10.5" r="9.5" style="fill:none"/>
        </g>
        <g data-name="Ellipse 1354" transform="translate(230.5 60.5)" style="stroke:#19257c;stroke-width:2px;fill:none">
            <circle cx="3.5" cy="3.5" r="3.5" style="stroke:none"/>
            <circle cx="3.5" cy="3.5" r="2.5" style="fill:none"/>
        </g>
    </g>
    <g data-name="Group 12965">
        <text transform="translate(79.5 81.5)" style="fill:#f5334f;font-size:15px;font-family:Montserrat-Bold,Montserrat;font-weight:700;letter-spacing:.291em"><tspan x="0" y="0">BACKEND</tspan></text>
        <text transform="translate(79.5 61.5)" style="font-size:19px;letter-spacing:.02em;fill:#19257c;font-family:Montserrat-Medium,Montserrat;font-weight:500"><tspan x="0" y="0">Realtyfeed</tspan></text>
        <g data-name="Group 12944">
            <path data-name="Subtraction 91" d="M18.365 36.559h-.007a18.126 18.126 0 0 1-6.809-1.321 17.9 17.9 0 0 1-5.992-3.961l-.248-.246a17.966 17.966 0 0 1 0-25.5l.248-.246A17.992 17.992 0 0 1 14.906.331a18.241 18.241 0 0 1 10.275.99 17.917 17.917 0 0 1 5.992 3.961l13.055 13-5.018 5a.928.928 0 0 0-.341-.064h-.067a7.156 7.156 0 0 0-1.4.229 7.254 7.254 0 0 0-1.121.4.935.935 0 0 0-.542 1 1.968 1.968 0 0 1-2.271 2.27.918.918 0 0 0-1 .533 7.489 7.489 0 0 0-.654 2.454 1.025 1.025 0 0 0 .029.322.929.929 0 0 0 .05.14l-.721.718a18 18 0 0 1-9.349 4.951 18.356 18.356 0 0 1-3.458.324zM5.629 10.735 7.973 14.3h17.094a1.36 1.36 0 0 1 .464.324 1.541 1.541 0 0 1 .315.487 1.957 1.957 0 0 1 .136.778 1.791 1.791 0 0 1-.15.737 1.081 1.081 0 0 1-.314.4.951.951 0 0 1-.452.2H9.892l2.345 3.57h6.371l3.733 6.4h6.312l-3.971-6.4h1.63a5.157 5.157 0 0 0 2.049-.76 4.584 4.584 0 0 0 2.032-4.143 4.989 4.989 0 0 0-2.049-4.27 5.36 5.36 0 0 0-2.032-.887H5.629z" transform="translate(23.004 44.459)" style="fill:#19257c"/>
            <g data-name="Layer 2">
                <path data-name="Path 29479" d="M12.436 4.424a1.728 1.728 0 0 1-1.362-2.337.811.811 0 0 0-.242-.913A6.5 6.5 0 0 0 8.892.051a.816.816 0 0 0-.921.256 1.724 1.724 0 0 1-1.358.662A1.724 1.724 0 0 1 5.255.307a.816.816 0 0 0-.921-.256 6.533 6.533 0 0 0-1.808 1.014A.82.82 0 0 0 2.27 2 1.719 1.719 0 0 1 .838 4.367a.816.816 0 0 0-.714.657A6.234 6.234 0 0 0 0 6.258a6.313 6.313 0 0 0 .084 1.036.816.816 0 0 0 .716.684 1.719 1.719 0 0 1 1.4 2.429.8.8 0 0 0 .225.961 6.551 6.551 0 0 0 1.922 1.107.882.882 0 0 0 .278.048.811.811 0 0 0 .661-.344 1.706 1.706 0 0 1 1.414-.741 1.728 1.728 0 0 1 1.384.7.811.811 0 0 0 .952.269A6.613 6.613 0 0 0 10.8 11.35a.816.816 0 0 0 .238-.93 1.719 1.719 0 0 1 1.38-2.376.816.816 0 0 0 .692-.67 6.392 6.392 0 0 0 .115-1.115 6.33 6.33 0 0 0-.11-1.178.807.807 0 0 0-.679-.656zM8.817 6.258a2.2 2.2 0 1 1-2.2-2.2 2.2 2.2 0 0 1 2.2 2.2z" transform="rotate(14.98 -229.25 254.307)" style="fill:#19257c"/>
            </g>
        </g>
    </g>
</svg>
