<svg xmlns="http://www.w3.org/2000/svg" width="22" height="22" viewBox="0 0 22 22">
    <path data-name="Union 4" d="M0 22v-1.289h1.189V7.147H6.23V5.1l1.834-.917V2.105h2.291V0h1.289v2.105h2.292v2.08l1.341.671h3.243v3.838h2.292v12.017H22V22zm15.77-1.289h3.753V9.983H15.77zM9.354 4.982 7.52 5.9v14.811h6.96V5.9l-1.833-.917V3.395H9.354zM2.479 20.711H6.23V8.436H2.479zM15.77 8.694h1.46v-2.55h-1.46zm1.246 8.587v-1.834H18.3v1.833zm-5.285 0v-1.834h1.289v1.833zm-2.75 0v-1.834h1.289v1.833zM3.7 15.87v-1.834h1.284v1.834zm13.32-2.256v-1.833h1.28v1.833zm-5.285 0v-1.833h1.285v1.833zm-2.75 0v-1.833h1.285v1.833zM3.7 12.2v-1.83h1.284v1.83zm8.03-2.253V8.114h1.29v1.833zm-2.75 0V8.114h1.29v1.833z" transform="translate(0 -.001)" style="fill:#314bc9"/>
</svg>
