<svg xmlns="http://www.w3.org/2000/svg" width="20.492" height="22.686" viewBox="0 0 20.492 22.686">
    <g data-name="Group 91334">
        <path data-name="Path 95613" d="M38.43 16.948a2.628 2.628 0 0 0-2.63-2.312.287.287 0 0 1-.289-.289v-4.31A7.543 7.543 0 0 0 30.643 3a2.56 2.56 0 0 0 .051-.5 2.5 2.5 0 1 0-5 0 2.676 2.676 0 0 0 .048.487 7.312 7.312 0 0 0-4.866 6.893v4.468a.29.29 0 0 1-.289.289 2.625 2.625 0 0 0-2.627 2.312 2.562 2.562 0 0 0 2.55 2.81h4.413a3.291 3.291 0 0 0 6.542 0h4.413a2.562 2.562 0 0 0 2.55-2.81zM28.2 1.464A1.037 1.037 0 0 1 29.231 2.5a.9.9 0 0 1-.015.139 6.484 6.484 0 0 0-.754-.07 7.54 7.54 0 0 0-1.288.073.9.9 0 0 1-.014-.142 1.038 1.038 0 0 1 1.04-1.036zm0 19.758a1.836 1.836 0 0 1-1.8-1.464h3.586a1.835 1.835 0 0 1-1.786 1.464zm8.5-3.286a1.089 1.089 0 0 1-.812.359H20.512a1.089 1.089 0 0 1-.812-.359 1.075 1.075 0 0 1-.278-.849 1.15 1.15 0 0 1 1.171-.988 1.755 1.755 0 0 0 1.753-1.753V9.879A5.857 5.857 0 0 1 28.2 4.025h.216a5.986 5.986 0 0 1 5.638 6.008v4.31A1.755 1.755 0 0 0 35.8 16.1a1.15 1.15 0 0 1 1.171.988 1.1 1.1 0 0 1-.279.848z" transform="translate(-17.95)" style="fill:#fff"/>
        <path data-name="Path 95614" d="M19.25 50.64a.731.731 0 0 0 .714-.574 8.553 8.553 0 0 1 2.327-4.233.732.732 0 0 0-1.036-1.033 10.012 10.012 0 0 0-2.722 4.958.727.727 0 0 0 .556.871.847.847 0 0 0 .161.011z" transform="translate(-18.481 -41.859)" style="fill:#fff"/>
        <path data-name="Path 95615" d="M290.658 50.583a.772.772 0 0 0 .157-.018.729.729 0 0 0 .556-.871 10.028 10.028 0 0 0-2.722-4.958.732.732 0 1 0-1.035 1.035A8.582 8.582 0 0 1 289.941 50a.737.737 0 0 0 .717.583z" transform="translate(-270.936 -41.801)" style="fill:#fff"/>
    </g>
</svg>
