<svg xmlns="http://www.w3.org/2000/svg" width="25.798" height="18.057" viewBox="0 0 25.798 18.057">
    <path data-name="Path 30601" d="M9331.585 23054.236h-.006l-9.951-4.115a.55.55 0 0 1-.348-.514v-5.613l-2.008-.676a.57.57 0 0 1-.353-.365.56.56 0 0 1 .087-.5l2.384-3.187a.61.61 0 0 1 .3-.2l9.951-2.811a.43.43 0 0 1 .15-.023.422.422 0 0 1 .15.023l9.958 2.811a.544.544 0 0 1 .295.2c.023.029.249.336 2.384 3.188a.56.56 0 0 1 .087.5.57.57 0 0 1-.353.365l-2.008.676v5.613a.551.551 0 0 1-.348.514l-9.951 4.115a.594.594 0 0 1-.215.045.45.45 0 0 1-.205-.046zm.77-1.355 8.829-3.65v-4.854l-6.26 2.129a.652.652 0 0 1-.186.029.559.559 0 0 1-.434-.209l-1.95-2.406zm-9.951-3.65 8.829 3.65v-8.961l-1.95 2.406a.552.552 0 0 1-.434.209.647.647 0 0 1-.186-.029l-6.26-2.129zm10.368-6.578 2.158 2.662 8.291-2.812-1.7-2.262zm-12.405-.15 8.291 2.813 2.158-2.662-8.754-2.412zm3.564-2.91 7.862 2.164 7.863-2.164-7.863-2.223z" transform="translate(-9318.895 -23036.224)" style="fill:#314bc9"/>
</svg>
