<svg xmlns="http://www.w3.org/2000/svg" width="25.799" height="18.051" viewBox="0 0 25.799 18.051">
    <path data-name="Path 30602" d="m9210.188 23054.391-.006-.006-9.951-4.109a.56.56 0 0 1-.348-.52v-5.607l-2-.682a.556.556 0 0 1-.353-.365.54.54 0 0 1 .087-.5l2.384-3.187a.6.6 0 0 1 .295-.2l9.951-2.811a.716.716 0 0 1 .156-.018.652.652 0 0 1 .15.018l9.952 2.811a.519.519 0 0 1 .295.2c.023.035.255.342 2.39 3.188a.561.561 0 0 1-.271.869l-2 .682v5.607a.562.562 0 0 1-.348.52l-9.951 4.109a.511.511 0 0 1-.215.045.6.6 0 0 1-.217-.044zm.77-1.361 8.835-3.65v-4.854l-6.266 2.129a.613.613 0 0 1-.18.029.551.551 0 0 1-.434-.209l-1.956-2.4zm-9.951-3.65 8.835 3.65v-8.955l-1.956 2.4a.545.545 0 0 1-.434.209.607.607 0 0 1-.18-.029l-6.266-2.129zm10.368-6.578 2.164 2.662 8.285-2.812-1.689-2.262zm-12.4-.15 8.285 2.813 2.164-2.662-8.754-2.412zm3.564-2.91 7.862 2.17 7.863-2.17-7.863-2.217z" transform="translate(-9197.5 -23036.38)" style="fill:#fff"/>
</svg>
