<svg xmlns="http://www.w3.org/2000/svg" width="21.5" height="21.5" viewBox="0 0 21.5 21.5">
    <path data-name="Path 30650" d="M10.5 20.263H2.95a.2.2 0 0 1-.141-.059.2.2 0 0 1-.059-.141v-1.45a2.836 2.836 0 0 1 1.507-2.185 13.348 13.348 0 0 1 7.243-1.816c.49 0 .971.02 1.441.057a.75.75 0 1 0 .118-1.495q-.762-.062-1.559-.062a14.882 14.882 0 0 0-8.089 2.076 4.281 4.281 0 0 0-2.161 3.424v1.451a1.7 1.7 0 0 0 1.7 1.7h7.55a.75.75 0 0 0 0-1.5z" style="fill:#fff;fill-rule:evenodd" transform="translate(-1.25 -1.25)"/>
    <path data-name="Path 30651" d="M11.5 1.25a5.5 5.5 0 1 0 5.5 5.5 5.5 5.5 0 0 0-5.5-5.5zm0 1.5a4 4 0 1 1-4 4 4 4 0 0 1 4-4z" style="fill:#fff;fill-rule:evenodd" transform="translate(-1.25 -1.25)"/>
    <path data-name="Path 30652" d="M18.152 20.208a4 4 0 1 0-3.36-3.359L12.47 19.17a.751.751 0 0 0-.22.531V22a.75.75 0 0 0 .75.75h2.3a.751.751 0 0 0 .531-.22zm-.052-1.54a.749.749 0 0 0-.723.194l-2.388 2.388H13.75v-1.239l2.388-2.388a.749.749 0 0 0 .194-.723 2.5 2.5 0 1 1 1.768 1.768z" style="fill:#fff;fill-rule:evenodd" transform="translate(-1.25 -1.25)"/>
    <path data-name="Path 30653" d="M17.982 17.018a1.084 1.084 0 1 1 1.533 0 1.085 1.085 0 0 1-1.533 0z" style="fill:#fff;fill-rule:evenodd" transform="translate(-1.25 -1.25)"/>
</svg>
