<svg xmlns="http://www.w3.org/2000/svg" width="24.708" height="24.708" viewBox="0 0 24.708 24.708">
    <g data-name="Group 12918">
        <path data-name="Path 29123" d="M127.7 86.355a.724.724 0 0 0 .8-1.206l-6.069-4.029a.724.724 0 0 0-.8 0l-6.069 4.029a.724.724 0 0 0 .8 1.206l5.668-3.763z" transform="translate(-109.68 -77.09)" style="fill:#314bc9"/>
        <path data-name="Path 29124" d="M182.815 165.4a.724.724 0 1 0 .8-1.206l-3.125-2.075a.724.724 0 0 0-.8 0l-3.125 2.075a.724.724 0 0 0 .8 1.206l2.725-1.809z" transform="translate(-167.738 -154.181)" style="fill:#314bc9"/>
        <path data-name="Path 29125" d="m24.384 15.66-2.035-1.351 2.035-1.351a.724.724 0 0 0 0-1.206L22.348 10.4l2.035-1.351a.724.724 0 0 0 0-1.206L12.754.121a.724.724 0 0 0-.8 0L.323 7.842a.724.724 0 0 0 0 1.206L2.358 10.4.323 11.751a.724.724 0 0 0 0 1.206l2.035 1.351L.323 15.66a.724.724 0 0 0 0 1.206l11.63 7.721a.724.724 0 0 0 .8 0l11.63-7.721a.724.724 0 0 0 .001-1.206zM12.353 1.593l10.322 6.853L12.353 15.3 2.032 8.446zm-8.686 9.676 8.286 5.5a.724.724 0 0 0 .8 0l8.286-5.5 1.635 1.086-10.321 6.852-10.321-6.853zm8.686 11.847L2.032 16.263l1.635-1.086 8.286 5.5a.724.724 0 0 0 .8 0l8.286-5.5 1.635 1.086z" style="fill:#314bc9"/>
    </g>
</svg>
