<svg xmlns="http://www.w3.org/2000/svg" width="19.921" height="19.93" viewBox="0 0 19.921 19.93">
    <path data-name="Path 30725" d="M20.169 3H5.762A2.761 2.761 0 0 0 3 5.757v14.407a2.763 2.763 0 0 0 2.762 2.766h14.407a2.763 2.763 0 0 0 2.757-2.765V5.757A2.761 2.761 0 0 0 20.169 3zm-8.2 2.2a.83.83 0 1 1-.83.83.833.833 0 0 1 .834-.83zm-2.906 0a.83.83 0 1 1-.83.83.833.833 0 0 1 .834-.83zm-2.749 0a.83.83 0 0 1 .008 1.661h-.004a.83.83 0 0 1 0-1.661zm14.952 14.873a1.187 1.187 0 0 1-1.188 1.188H5.853a1.187 1.187 0 0 1-1.187-1.188V9.851a1.187 1.187 0 0 1 1.187-1.188h7.955a.745.745 0 0 0 .639-.357l.59-.963a1.192 1.192 0 0 1 1.013-.565h4.027a1.187 1.187 0 0 1 1.188 1.188v12.107zm-5.489-2.084h-5.63a.83.83 0 1 0 0 1.661h5.63a.83.83 0 1 0 0-1.661zm-4.02-4.589.374-.374v2.666a.83.83 0 1 0 1.661 0v-2.669l.374.374a.827.827 0 0 0 1.171 0 .845.845 0 0 0 .008-1.179l-1.794-1.785a.844.844 0 0 0-1.179 0l-1.785 1.785a.837.837 0 0 0 0 1.179.827.827 0 0 0 1.171 0z" style="fill:#314bc9" transform="translate(-3.005 -3)"/>
    <g data-name="Group 50984">
        <path data-name="Path 30726" d="M17.855 15.52a1 1 0 0 1-1.41 0L16 15.07v3.21a1 1 0 0 1-2 0v-3.21l-.45.45a1 1 0 0 1-1.41 0 1.008 1.008 0 0 1 0-1.42l2.15-2.15a1.03 1.03 0 0 1 1.42 0l2.16 2.15a1.017 1.017 0 0 1-.01 1.42z" transform="translate(-5.038 -5.152)" style="fill:#314bc9"/>
    </g>
    <g data-name="Group 50985">
        <path data-name="Path 30727" d="M19.385 22.05a1 1 0 0 1-1 1H11.6a1 1 0 1 1 0-2h6.78a1 1 0 0 1 1.005 1z" transform="translate(-5.038 -6.34)" style="fill:#314bc9"/>
    </g>
</svg>
