<svg xmlns="http://www.w3.org/2000/svg" width="16.614" height="19.137" viewBox="0 0 16.614 19.137">
    <path data-name="Path 30558" d="M14.127 2 5.82 3.828V12.2a7.26 7.26 0 0 0 3.662 6.086l4.645 2.856 4.645-2.856a7.26 7.26 0 0 0 3.662-6.086V3.828zm7.038 10.2a6.026 6.026 0 0 1-3.065 5l-3.976 2.456-3.973-2.456a6.041 6.041 0 0 1-3.062-5V4.856l7.038-1.571 7.038 1.571z" style="fill:#314bc9" transform="translate(-5.82 -2)"/>
    <path data-name="Path 30559" d="m18.245 22.156-.855.952 2.982 3.321 5.846-6.507-.855-.952-4.991 5.559z" transform="translate(-13.497 -13.774)" style="fill:#314bc9"/>
</svg>
