<svg xmlns="http://www.w3.org/2000/svg" width="21.951" height="21.951" viewBox="0 0 21.951 21.951">
    <g data-name="Group 12921">
        <path d="M12.7 2a4.7 4.7 0 1 0 4.7 4.7A4.716 4.716 0 0 0 12.7 2zm0 1.568A3.136 3.136 0 1 1 9.568 6.7 3.124 3.124 0 0 1 12.7 3.568z" transform="translate(-3.296 -2)" style="fill:#314bc9"/>
        <path d="M9.056 16A7.057 7.057 0 0 0 2 23.056v1.568a.784.784 0 0 0 .784.784h8.5a.784.784 0 1 0 0-1.568H3.568v-.784a5.459 5.459 0 0 1 5.488-5.488H12.2a.784.784 0 1 0 0-1.568z" transform="translate(-2 -5.025)" style="fill:#314bc9"/>
        <path d="M21.477 16a.785.785 0 0 0-.776.795v.853a3.9 3.9 0 0 0-1.375.577l-.6-.6a.759.759 0 0 0-.593-.251.792.792 0 0 0-.516 1.36l.6.6a3.9 3.9 0 0 0-.574 1.375H16.8a.784.784 0 1 0 0 1.568h.854a3.9 3.9 0 0 0 .573 1.363l-.609.609a.784.784 0 1 0 1.109 1.109l.608-.608a3.9 3.9 0 0 0 1.372.576v.853a.784.784 0 1 0 1.568 0v-.851a3.9 3.9 0 0 0 1.37-.574l.612.612a.784.784 0 1 0 1.108-1.108l-.609-.609a3.9 3.9 0 0 0 .576-1.37h.854a.784.784 0 1 0 0-1.568h-.851a3.9 3.9 0 0 0-.577-1.383l.6-.6a.783.783 0 1 0-1.105-1.109l-.606.606a3.9 3.9 0 0 0-1.373-.576v-.851A.782.782 0 0 0 21.48 16zm.011 3.136a2.352 2.352 0 1 1-2.352 2.352 2.34 2.34 0 0 1 2.352-2.352z" transform="translate(-5.025 -5.025)" style="fill:#314bc9"/>
    </g>
</svg>
